<?xml version="1.0" encoding="UTF-8" standalone="no"?><svg xmlns="http://www.w3.org/2000/svg" xmlns:xlink="http://www.w3.org/1999/xlink" contentScriptType="application/ecmascript" contentStyleType="text/css" height="1205px" preserveAspectRatio="none" style="width:849px;height:1205px;" version="1.1" viewBox="0 0 849 1205" width="849px" zoomAndPan="magnify"><defs><filter height="300%" id="f1anjdqmmi4wye" width="300%" x="-1" y="-1"><feGaussianBlur result="blurOut" stdDeviation="2.0"/><feColorMatrix in="blurOut" result="blurOut2" type="matrix" values="0 0 0 0 0 0 0 0 0 0 0 0 0 0 0 0 0 0 .4 0"/><feOffset dx="4.0" dy="4.0" in="blurOut2" result="blurOut3"/><feBlend in="SourceGraphic" in2="blurOut3" mode="normal"/></filter></defs><g><!--class IBaseModule--><rect fill="#FEFECE" filter="url(#f1anjdqmmi4wye)" height="338.5547" id="IBaseModule" style="stroke: #A80036; stroke-width: 1.5;" width="355" x="6" y="8"/><ellipse cx="143.25" cy="24" fill="#B4A7E5" rx="11" ry="11" style="stroke: #A80036; stroke-width: 1.0;"/><path d="M144.2031,20.6406 L144.2031,27.2969 L145.9219,27.2969 Q146.5313,27.2969 146.7969,27.5313 Q147.0625,27.7656 147.0625,28.1563 Q147.0625,28.5313 146.7969,28.7656 Q146.5313,29 145.9219,29 L140.7813,29 Q140.1719,29 139.9063,28.7656 Q139.6406,28.5313 139.6406,28.1406 Q139.6406,27.7656 139.9063,27.5313 Q140.1719,27.2969 140.7813,27.2969 L142.5,27.2969 L142.5,20.6406 L140.7813,20.6406 Q140.1719,20.6406 139.9063,20.4063 Q139.6406,20.1719 139.6406,19.7813 Q139.6406,19.4063 139.9063,19.1719 Q140.1719,18.9375 140.7813,18.9375 L145.9219,18.9375 Q146.5313,18.9375 146.7969,19.1719 Q147.0625,19.4063 147.0625,19.7813 Q147.0625,20.1719 146.7969,20.4063 Q146.5313,20.6406 145.9219,20.6406 L144.2031,20.6406 Z "/><text fill="#000000" font-family="sans-serif" font-size="12" font-style="italic" lengthAdjust="spacingAndGlyphs" textLength="72" x="163.75" y="28.9102">IBaseModule</text><line style="stroke: #A80036; stroke-width: 1.5;" x1="7" x2="360" y1="40" y2="40"/><ellipse cx="17" cy="52.418" fill="none" rx="3" ry="3" style="stroke: #038048; stroke-width: 1.0;"/><text fill="#000000" font-family="sans-serif" font-size="11" lengthAdjust="spacingAndGlyphs" textLength="72" x="26" y="55.4189">width : number</text><ellipse cx="17" cy="66.2539" fill="none" rx="3" ry="3" style="stroke: #038048; stroke-width: 1.0;"/><text fill="#000000" font-family="sans-serif" font-size="11" lengthAdjust="spacingAndGlyphs" textLength="74" x="26" y="69.2549">height : number</text><ellipse cx="17" cy="80.0898" fill="none" rx="3" ry="3" style="stroke: #038048; stroke-width: 1.0;"/><text fill="#000000" font-family="sans-serif" font-size="11" lengthAdjust="spacingAndGlyphs" textLength="72" x="26" y="83.0908">depth : number</text><ellipse cx="17" cy="93.9258" fill="none" rx="3" ry="3" style="stroke: #038048; stroke-width: 1.0;"/><text fill="#000000" font-family="sans-serif" font-size="11" lengthAdjust="spacingAndGlyphs" textLength="48" x="26" y="96.9268">type : any</text><ellipse cx="17" cy="107.7617" fill="none" rx="3" ry="3" style="stroke: #038048; stroke-width: 1.0;"/><text fill="#000000" font-family="sans-serif" font-size="11" lengthAdjust="spacingAndGlyphs" textLength="51" x="26" y="110.7627">state : any</text><ellipse cx="17" cy="121.5977" fill="none" rx="3" ry="3" style="stroke: #038048; stroke-width: 1.0;"/><text fill="#000000" font-family="sans-serif" font-size="11" lengthAdjust="spacingAndGlyphs" textLength="101" x="26" y="124.5986">parent : IBaseModule</text><ellipse cx="17" cy="135.4336" fill="none" rx="3" ry="3" style="stroke: #038048; stroke-width: 1.0;"/><text fill="#000000" font-family="sans-serif" font-size="11" lengthAdjust="spacingAndGlyphs" textLength="69" x="26" y="138.4346">object3D : any</text><ellipse cx="17" cy="149.2695" fill="none" rx="3" ry="3" style="stroke: #038048; stroke-width: 1.0;"/><text fill="#000000" font-family="sans-serif" font-size="11" lengthAdjust="spacingAndGlyphs" textLength="147" x="26" y="152.2705">next : IBaseModule | undefined</text><ellipse cx="17" cy="163.1055" fill="none" rx="3" ry="3" style="stroke: #038048; stroke-width: 1.0;"/><text fill="#000000" font-family="sans-serif" font-size="11" lengthAdjust="spacingAndGlyphs" textLength="148" x="26" y="166.1064">prev : IBaseModule | undefined</text><line style="stroke: #A80036; stroke-width: 1.5;" x1="7" x2="360" y1="172.5234" y2="172.5234"/><ellipse cx="17" cy="184.9414" fill="#84BE84" rx="3" ry="3" style="stroke: #038048; stroke-width: 1.0;"/><text fill="#000000" font-family="sans-serif" font-size="11" lengthAdjust="spacingAndGlyphs" textLength="168" x="26" y="187.9424">children : (IBaseModule | KObject)[]</text><ellipse cx="17" cy="198.7773" fill="#84BE84" rx="3" ry="3" style="stroke: #038048; stroke-width: 1.0;"/><text fill="#000000" font-family="sans-serif" font-size="11" lengthAdjust="spacingAndGlyphs" textLength="47" x="26" y="201.7783">init(): void</text><ellipse cx="17" cy="212.6133" fill="#84BE84" rx="3" ry="3" style="stroke: #038048; stroke-width: 1.0;"/><text fill="#000000" font-family="sans-serif" font-size="11" lengthAdjust="spacingAndGlyphs" textLength="101" x="26" y="215.6143">clone(): IBaseModule</text><ellipse cx="17" cy="226.4492" fill="#84BE84" rx="3" ry="3" style="stroke: #038048; stroke-width: 1.0;"/><text fill="#000000" font-family="sans-serif" font-size="11" lengthAdjust="spacingAndGlyphs" textLength="97" x="26" y="229.4502">cloneChildren(): any</text><ellipse cx="17" cy="240.2852" fill="#84BE84" rx="3" ry="3" style="stroke: #038048; stroke-width: 1.0;"/><text fill="#000000" font-family="sans-serif" font-size="11" lengthAdjust="spacingAndGlyphs" textLength="297" x="26" y="243.2861">getNextChild(child: any): IBaseModule['children'][0] | undefined</text><ellipse cx="17" cy="254.1211" fill="#84BE84" rx="3" ry="3" style="stroke: #038048; stroke-width: 1.0;"/><text fill="#000000" font-family="sans-serif" font-size="11" lengthAdjust="spacingAndGlyphs" textLength="297" x="26" y="257.1221">getPrevChild(child: any): IBaseModule['children'][0] | undefined</text><ellipse cx="17" cy="267.957" fill="#84BE84" rx="3" ry="3" style="stroke: #038048; stroke-width: 1.0;"/><text fill="#000000" font-family="sans-serif" font-size="11" lengthAdjust="spacingAndGlyphs" textLength="177" x="26" y="270.958">addObject(object: any): IBaseModule</text><ellipse cx="17" cy="281.793" fill="#84BE84" rx="3" ry="3" style="stroke: #038048; stroke-width: 1.0;"/><text fill="#000000" font-family="sans-serif" font-size="11" lengthAdjust="spacingAndGlyphs" textLength="187" x="26" y="284.7939">setObject3D(object: any): IBaseModule</text><ellipse cx="17" cy="295.6289" fill="#84BE84" rx="3" ry="3" style="stroke: #038048; stroke-width: 1.0;"/><text fill="#000000" font-family="sans-serif" font-size="11" lengthAdjust="spacingAndGlyphs" textLength="199" x="26" y="298.6299">canModuleFitObject(object: any): boolean</text><ellipse cx="17" cy="309.4648" fill="#84BE84" rx="3" ry="3" style="stroke: #038048; stroke-width: 1.0;"/><text fill="#000000" font-family="sans-serif" font-size="11" lengthAdjust="spacingAndGlyphs" textLength="329" x="26" y="312.4658">canChildModuleFitObject(module: IBaseModule, object: any): boolean</text><ellipse cx="17" cy="323.3008" fill="#84BE84" rx="3" ry="3" style="stroke: #038048; stroke-width: 1.0;"/><text fill="#000000" font-family="sans-serif" font-size="11" lengthAdjust="spacingAndGlyphs" textLength="249" x="26" y="326.3018">update(data: any, recursive: boolean): IBaseModule</text><ellipse cx="17" cy="337.1367" fill="#84BE84" rx="3" ry="3" style="stroke: #038048; stroke-width: 1.0;"/><text fill="#000000" font-family="sans-serif" font-size="11" lengthAdjust="spacingAndGlyphs" textLength="280" x="26" y="340.1377">updateParent(data: any, recursive: boolean): IBaseModule</text><!--class BaseModule--><rect fill="#FEFECE" filter="url(#f1anjdqmmi4wye)" height="352.3906" id="BaseModule" style="stroke: #A80036; stroke-width: 1.5;" width="268" x="49.5" y="407"/><ellipse cx="144.75" cy="423" fill="#ADD1B2" rx="11" ry="11" style="stroke: #A80036; stroke-width: 1.0;"/><path d="M147.5156,418.875 Q147.6719,418.6563 147.8594,418.5469 Q148.0469,418.4375 148.2656,418.4375 Q148.6406,418.4375 148.875,418.6953 Q149.1094,418.9531 149.1094,419.5625 L149.1094,421.0156 Q149.1094,421.625 148.875,421.8906 Q148.6406,422.1563 148.2656,422.1563 Q147.9219,422.1563 147.7188,421.9531 Q147.5156,421.7656 147.4063,421.25 Q147.3594,420.8906 147.1719,420.7031 Q146.8438,420.3281 146.2344,420.1094 Q145.625,419.8906 145,419.8906 Q144.2344,419.8906 143.6016,420.2188 Q142.9688,420.5469 142.4766,421.2969 Q141.9844,422.0469 141.9844,423.0781 L141.9844,424.1719 Q141.9844,425.4063 142.875,426.2266 Q143.7656,427.0469 145.3594,427.0469 Q146.2969,427.0469 146.9531,426.7969 Q147.3438,426.6406 147.7656,426.2031 Q148.0313,425.9375 148.1797,425.8594 Q148.3281,425.7813 148.5313,425.7813 Q148.8594,425.7813 149.1172,426.0391 Q149.375,426.2969 149.375,426.6406 Q149.375,426.9844 149.0313,427.3906 Q148.5313,427.9688 147.7344,428.2969 Q146.6563,428.75 145.3594,428.75 Q143.8438,428.75 142.6406,428.125 Q141.6563,427.625 140.9688,426.5547 Q140.2813,425.4844 140.2813,424.2031 L140.2813,423.0469 Q140.2813,421.7188 140.8984,420.5703 Q141.5156,419.4219 142.6094,418.8047 Q143.7031,418.1875 144.9375,418.1875 Q145.6719,418.1875 146.3203,418.3516 Q146.9688,418.5156 147.5156,418.875 Z "/><text fill="#000000" font-family="sans-serif" font-size="12" lengthAdjust="spacingAndGlyphs" textLength="69" x="165.25" y="427.9102">BaseModule</text><line style="stroke: #A80036; stroke-width: 1.5;" x1="50.5" x2="316.5" y1="439" y2="439"/><ellipse cx="60.5" cy="451.418" fill="none" rx="3" ry="3" style="stroke: #038048; stroke-width: 1.0;"/><text fill="#000000" font-family="sans-serif" font-size="11" lengthAdjust="spacingAndGlyphs" textLength="72" x="69.5" y="454.4189">width : number</text><ellipse cx="60.5" cy="465.2539" fill="none" rx="3" ry="3" style="stroke: #038048; stroke-width: 1.0;"/><text fill="#000000" font-family="sans-serif" font-size="11" lengthAdjust="spacingAndGlyphs" textLength="74" x="69.5" y="468.2549">height : number</text><ellipse cx="60.5" cy="479.0898" fill="none" rx="3" ry="3" style="stroke: #038048; stroke-width: 1.0;"/><text fill="#000000" font-family="sans-serif" font-size="11" lengthAdjust="spacingAndGlyphs" textLength="72" x="69.5" y="482.0908">depth : number</text><ellipse cx="60.5" cy="492.9258" fill="none" rx="3" ry="3" style="stroke: #038048; stroke-width: 1.0;"/><text fill="#000000" font-family="sans-serif" font-size="11" lengthAdjust="spacingAndGlyphs" textLength="48" x="69.5" y="495.9268">type : any</text><ellipse cx="60.5" cy="506.7617" fill="none" rx="3" ry="3" style="stroke: #038048; stroke-width: 1.0;"/><text fill="#000000" font-family="sans-serif" font-size="11" lengthAdjust="spacingAndGlyphs" textLength="51" x="69.5" y="509.7627">state : any</text><ellipse cx="60.5" cy="520.5977" fill="none" rx="3" ry="3" style="stroke: #038048; stroke-width: 1.0;"/><text fill="#000000" font-family="sans-serif" font-size="11" lengthAdjust="spacingAndGlyphs" textLength="101" x="69.5" y="523.5986">parent : IBaseModule</text><ellipse cx="60.5" cy="534.4336" fill="none" rx="3" ry="3" style="stroke: #038048; stroke-width: 1.0;"/><text fill="#000000" font-family="sans-serif" font-size="11" lengthAdjust="spacingAndGlyphs" textLength="69" x="69.5" y="537.4346">object3D : any</text><ellipse cx="60.5" cy="548.2695" fill="none" rx="3" ry="3" style="stroke: #038048; stroke-width: 1.0;"/><text fill="#000000" font-family="sans-serif" font-size="11" lengthAdjust="spacingAndGlyphs" textLength="59" x="69.5" y="551.2705">idx : number</text><ellipse cx="60.5" cy="562.1055" fill="none" rx="3" ry="3" style="stroke: #038048; stroke-width: 1.0;"/><text fill="#000000" font-family="sans-serif" font-size="11" lengthAdjust="spacingAndGlyphs" textLength="105" x="69.5" y="565.1064">«readonly» next : any</text><ellipse cx="60.5" cy="575.9414" fill="none" rx="3" ry="3" style="stroke: #038048; stroke-width: 1.0;"/><text fill="#000000" font-family="sans-serif" font-size="11" lengthAdjust="spacingAndGlyphs" textLength="106" x="69.5" y="578.9424">«readonly» prev : any</text><line style="stroke: #A80036; stroke-width: 1.5;" x1="50.5" x2="316.5" y1="585.3594" y2="585.3594"/><ellipse cx="60.5" cy="597.7773" fill="#84BE84" rx="3" ry="3" style="stroke: #038048; stroke-width: 1.0;"/><text fill="#000000" font-family="sans-serif" font-size="11" lengthAdjust="spacingAndGlyphs" textLength="160" x="69.5" y="600.7783">children : (BaseModule|KObject)[]</text><ellipse cx="60.5" cy="611.6133" fill="#84BE84" rx="3" ry="3" style="stroke: #038048; stroke-width: 1.0;"/><text fill="#000000" font-family="sans-serif" font-size="11" lengthAdjust="spacingAndGlyphs" textLength="21" x="69.5" y="614.6143">init()</text><ellipse cx="60.5" cy="625.4492" fill="#84BE84" rx="3" ry="3" style="stroke: #038048; stroke-width: 1.0;"/><text fill="#000000" font-family="sans-serif" font-size="11" lengthAdjust="spacingAndGlyphs" textLength="34" x="69.5" y="628.4502">clone()</text><ellipse cx="60.5" cy="639.2852" fill="#84BE84" rx="3" ry="3" style="stroke: #038048; stroke-width: 1.0;"/><text fill="#000000" font-family="sans-serif" font-size="11" lengthAdjust="spacingAndGlyphs" textLength="73" x="69.5" y="642.2861">cloneChildren()</text><ellipse cx="60.5" cy="653.1211" fill="#84BE84" rx="3" ry="3" style="stroke: #038048; stroke-width: 1.0;"/><text fill="#000000" font-family="sans-serif" font-size="11" lengthAdjust="spacingAndGlyphs" textLength="114" x="69.5" y="656.1221">getNextChild(child: any)</text><ellipse cx="60.5" cy="666.957" fill="#84BE84" rx="3" ry="3" style="stroke: #038048; stroke-width: 1.0;"/><text fill="#000000" font-family="sans-serif" font-size="11" lengthAdjust="spacingAndGlyphs" textLength="114" x="69.5" y="669.958">getPrevChild(child: any)</text><ellipse cx="60.5" cy="680.793" fill="#84BE84" rx="3" ry="3" style="stroke: #038048; stroke-width: 1.0;"/><text fill="#000000" font-family="sans-serif" font-size="11" lengthAdjust="spacingAndGlyphs" textLength="110" x="69.5" y="683.7939">addObject(object: any)</text><ellipse cx="60.5" cy="694.6289" fill="#84BE84" rx="3" ry="3" style="stroke: #038048; stroke-width: 1.0;"/><text fill="#000000" font-family="sans-serif" font-size="11" lengthAdjust="spacingAndGlyphs" textLength="133" x="69.5" y="697.6299">setObject3D(object3D: any)</text><ellipse cx="60.5" cy="708.4648" fill="#84BE84" rx="3" ry="3" style="stroke: #038048; stroke-width: 1.0;"/><text fill="#000000" font-family="sans-serif" font-size="11" lengthAdjust="spacingAndGlyphs" textLength="155" x="69.5" y="711.4658">canModuleFitObject(object: any)</text><ellipse cx="60.5" cy="722.3008" fill="#84BE84" rx="3" ry="3" style="stroke: #038048; stroke-width: 1.0;"/><text fill="#000000" font-family="sans-serif" font-size="11" lengthAdjust="spacingAndGlyphs" textLength="242" x="69.5" y="725.3018">canChildModuleFitObject(module: any, object: any)</text><ellipse cx="60.5" cy="736.1367" fill="#84BE84" rx="3" ry="3" style="stroke: #038048; stroke-width: 1.0;"/><text fill="#000000" font-family="sans-serif" font-size="11" lengthAdjust="spacingAndGlyphs" textLength="182" x="69.5" y="739.1377">update(data: any, recursive: boolean)</text><ellipse cx="60.5" cy="749.9727" fill="#84BE84" rx="3" ry="3" style="stroke: #038048; stroke-width: 1.0;"/><text fill="#000000" font-family="sans-serif" font-size="11" lengthAdjust="spacingAndGlyphs" textLength="213" x="69.5" y="752.9736">updateParent(data: any, recursive: boolean)</text><!--class ContainerModule--><rect fill="#FEFECE" filter="url(#f1anjdqmmi4wye)" height="75.6719" id="ContainerModule" style="stroke: #A80036; stroke-width: 1.5;" width="150" x="236.5" y="955"/><ellipse cx="262.3" cy="971" fill="#ADD1B2" rx="11" ry="11" style="stroke: #A80036; stroke-width: 1.0;"/><path d="M265.0656,966.875 Q265.2219,966.6563 265.4094,966.5469 Q265.5969,966.4375 265.8156,966.4375 Q266.1906,966.4375 266.425,966.6953 Q266.6594,966.9531 266.6594,967.5625 L266.6594,969.0156 Q266.6594,969.625 266.425,969.8906 Q266.1906,970.1563 265.8156,970.1563 Q265.4719,970.1563 265.2688,969.9531 Q265.0656,969.7656 264.9563,969.25 Q264.9094,968.8906 264.7219,968.7031 Q264.3938,968.3281 263.7844,968.1094 Q263.175,967.8906 262.55,967.8906 Q261.7844,967.8906 261.1516,968.2188 Q260.5188,968.5469 260.0266,969.2969 Q259.5344,970.0469 259.5344,971.0781 L259.5344,972.1719 Q259.5344,973.4063 260.425,974.2266 Q261.3156,975.0469 262.9094,975.0469 Q263.8469,975.0469 264.5031,974.7969 Q264.8938,974.6406 265.3156,974.2031 Q265.5813,973.9375 265.7297,973.8594 Q265.8781,973.7813 266.0813,973.7813 Q266.4094,973.7813 266.6672,974.0391 Q266.925,974.2969 266.925,974.6406 Q266.925,974.9844 266.5813,975.3906 Q266.0813,975.9688 265.2844,976.2969 Q264.2063,976.75 262.9094,976.75 Q261.3938,976.75 260.1906,976.125 Q259.2063,975.625 258.5188,974.5547 Q257.8313,973.4844 257.8313,972.2031 L257.8313,971.0469 Q257.8313,969.7188 258.4484,968.5703 Q259.0656,967.4219 260.1594,966.8047 Q261.2531,966.1875 262.4875,966.1875 Q263.2219,966.1875 263.8703,966.3516 Q264.5188,966.5156 265.0656,966.875 Z "/><text fill="#000000" font-family="sans-serif" font-size="12" lengthAdjust="spacingAndGlyphs" textLength="94" x="278.7" y="975.9102">ContainerModule</text><line style="stroke: #A80036; stroke-width: 1.5;" x1="237.5" x2="385.5" y1="987" y2="987"/><ellipse cx="247.5" cy="999.418" fill="none" rx="3" ry="3" style="stroke: #038048; stroke-width: 1.0;"/><text fill="#000000" font-family="sans-serif" font-size="11" lengthAdjust="spacingAndGlyphs" textLength="124" x="256.5" y="1002.4189">children : ContentModule[]</text><ellipse cx="247.5" cy="1013.2539" fill="none" rx="3" ry="3" style="stroke: #038048; stroke-width: 1.0;"/><text fill="#000000" font-family="sans-serif" font-size="11" lengthAdjust="spacingAndGlyphs" textLength="94" x="256.5" y="1016.2549">parent : GridModule</text><line style="stroke: #A80036; stroke-width: 1.5;" x1="237.5" x2="385.5" y1="1022.6719" y2="1022.6719"/><!--class GridModule--><rect fill="#FEFECE" filter="url(#f1anjdqmmi4wye)" height="103.3438" id="GridModule" style="stroke: #A80036; stroke-width: 1.5;" width="159" x="168" y="1091"/><ellipse cx="211.8" cy="1107" fill="#ADD1B2" rx="11" ry="11" style="stroke: #A80036; stroke-width: 1.0;"/><path d="M214.5656,1102.875 Q214.7219,1102.6563 214.9094,1102.5469 Q215.0969,1102.4375 215.3156,1102.4375 Q215.6906,1102.4375 215.925,1102.6953 Q216.1594,1102.9531 216.1594,1103.5625 L216.1594,1105.0156 Q216.1594,1105.625 215.925,1105.8906 Q215.6906,1106.1563 215.3156,1106.1563 Q214.9719,1106.1563 214.7688,1105.9531 Q214.5656,1105.7656 214.4563,1105.25 Q214.4094,1104.8906 214.2219,1104.7031 Q213.8938,1104.3281 213.2844,1104.1094 Q212.675,1103.8906 212.05,1103.8906 Q211.2844,1103.8906 210.6516,1104.2188 Q210.0188,1104.5469 209.5266,1105.2969 Q209.0344,1106.0469 209.0344,1107.0781 L209.0344,1108.1719 Q209.0344,1109.4063 209.925,1110.2266 Q210.8156,1111.0469 212.4094,1111.0469 Q213.3469,1111.0469 214.0031,1110.7969 Q214.3938,1110.6406 214.8156,1110.2031 Q215.0813,1109.9375 215.2297,1109.8594 Q215.3781,1109.7813 215.5813,1109.7813 Q215.9094,1109.7813 216.1672,1110.0391 Q216.425,1110.2969 216.425,1110.6406 Q216.425,1110.9844 216.0813,1111.3906 Q215.5813,1111.9688 214.7844,1112.2969 Q213.7063,1112.75 212.4094,1112.75 Q210.8938,1112.75 209.6906,1112.125 Q208.7063,1111.625 208.0188,1110.5547 Q207.3313,1109.4844 207.3313,1108.2031 L207.3313,1107.0469 Q207.3313,1105.7188 207.9484,1104.5703 Q208.5656,1103.4219 209.6594,1102.8047 Q210.7531,1102.1875 211.9875,1102.1875 Q212.7219,1102.1875 213.3703,1102.3516 Q214.0188,1102.5156 214.5656,1102.875 Z "/><text fill="#000000" font-family="sans-serif" font-size="12" lengthAdjust="spacingAndGlyphs" textLength="63" x="232.2" y="1111.9102">GridModule</text><line style="stroke: #A80036; stroke-width: 1.5;" x1="169" x2="326" y1="1123" y2="1123"/><ellipse cx="179" cy="1135.418" fill="none" rx="3" ry="3" style="stroke: #038048; stroke-width: 1.0;"/><text fill="#000000" font-family="sans-serif" font-size="11" lengthAdjust="spacingAndGlyphs" textLength="133" x="188" y="1138.4189">children : ContainerModule[]</text><ellipse cx="179" cy="1149.2539" fill="none" rx="3" ry="3" style="stroke: #038048; stroke-width: 1.0;"/><text fill="#000000" font-family="sans-serif" font-size="11" lengthAdjust="spacingAndGlyphs" textLength="83" x="188" y="1152.2549">type_mount : any</text><ellipse cx="179" cy="1163.0898" fill="none" rx="3" ry="3" style="stroke: #038048; stroke-width: 1.0;"/><text fill="#000000" font-family="sans-serif" font-size="11" lengthAdjust="spacingAndGlyphs" textLength="84" x="188" y="1166.0908">type_hAlign : any</text><ellipse cx="179" cy="1176.9258" fill="none" rx="3" ry="3" style="stroke: #038048; stroke-width: 1.0;"/><text fill="#000000" font-family="sans-serif" font-size="11" lengthAdjust="spacingAndGlyphs" textLength="58" x="188" y="1179.9268">parent : any</text><line style="stroke: #A80036; stroke-width: 1.5;" x1="169" x2="326" y1="1186.3438" y2="1186.3438"/><!--class ContentModule--><rect fill="#FEFECE" filter="url(#f1anjdqmmi4wye)" height="75.6719" id="ContentModule" style="stroke: #A80036; stroke-width: 1.5;" width="146" x="337.5" y="819"/><ellipse cx="366.45" cy="835" fill="#ADD1B2" rx="11" ry="11" style="stroke: #A80036; stroke-width: 1.0;"/><path d="M369.2156,830.875 Q369.3719,830.6563 369.5594,830.5469 Q369.7469,830.4375 369.9656,830.4375 Q370.3406,830.4375 370.575,830.6953 Q370.8094,830.9531 370.8094,831.5625 L370.8094,833.0156 Q370.8094,833.625 370.575,833.8906 Q370.3406,834.1563 369.9656,834.1563 Q369.6219,834.1563 369.4188,833.9531 Q369.2156,833.7656 369.1063,833.25 Q369.0594,832.8906 368.8719,832.7031 Q368.5438,832.3281 367.9344,832.1094 Q367.325,831.8906 366.7,831.8906 Q365.9344,831.8906 365.3016,832.2188 Q364.6688,832.5469 364.1766,833.2969 Q363.6844,834.0469 363.6844,835.0781 L363.6844,836.1719 Q363.6844,837.4063 364.575,838.2266 Q365.4656,839.0469 367.0594,839.0469 Q367.9969,839.0469 368.6531,838.7969 Q369.0438,838.6406 369.4656,838.2031 Q369.7313,837.9375 369.8797,837.8594 Q370.0281,837.7813 370.2313,837.7813 Q370.5594,837.7813 370.8172,838.0391 Q371.075,838.2969 371.075,838.6406 Q371.075,838.9844 370.7313,839.3906 Q370.2313,839.9688 369.4344,840.2969 Q368.3563,840.75 367.0594,840.75 Q365.5438,840.75 364.3406,840.125 Q363.3563,839.625 362.6688,838.5547 Q361.9813,837.4844 361.9813,836.2031 L361.9813,835.0469 Q361.9813,833.7188 362.5984,832.5703 Q363.2156,831.4219 364.3094,830.8047 Q365.4031,830.1875 366.6375,830.1875 Q367.3719,830.1875 368.0203,830.3516 Q368.6688,830.5156 369.2156,830.875 Z "/><text fill="#000000" font-family="sans-serif" font-size="12" lengthAdjust="spacingAndGlyphs" textLength="83" x="383.55" y="839.9102">ContentModule</text><line style="stroke: #A80036; stroke-width: 1.5;" x1="338.5" x2="482.5" y1="851" y2="851"/><ellipse cx="348.5" cy="863.418" fill="none" rx="3" ry="3" style="stroke: #038048; stroke-width: 1.0;"/><text fill="#000000" font-family="sans-serif" font-size="11" lengthAdjust="spacingAndGlyphs" textLength="120" x="357.5" y="866.4189">parent : ContainerModule</text><ellipse cx="348.5" cy="877.2539" fill="none" rx="3" ry="3" style="stroke: #038048; stroke-width: 1.0;"/><text fill="#000000" font-family="sans-serif" font-size="11" lengthAdjust="spacingAndGlyphs" textLength="91" x="357.5" y="880.2549">children : KObject[]</text><line style="stroke: #A80036; stroke-width: 1.5;" x1="338.5" x2="482.5" y1="886.6719" y2="886.6719"/><!--class Enum--><rect fill="#FEFECE" filter="url(#f1anjdqmmi4wye)" height="214.0313" id="Enum" style="stroke: #A80036; stroke-width: 1.5;" width="231" x="607" y="70.5"/><ellipse cx="701.75" cy="86.5" fill="#ADD1B2" rx="11" ry="11" style="stroke: #A80036; stroke-width: 1.0;"/><path d="M704.5156,82.375 Q704.6719,82.1563 704.8594,82.0469 Q705.0469,81.9375 705.2656,81.9375 Q705.6406,81.9375 705.875,82.1953 Q706.1094,82.4531 706.1094,83.0625 L706.1094,84.5156 Q706.1094,85.125 705.875,85.3906 Q705.6406,85.6563 705.2656,85.6563 Q704.9219,85.6563 704.7188,85.4531 Q704.5156,85.2656 704.4063,84.75 Q704.3594,84.3906 704.1719,84.2031 Q703.8438,83.8281 703.2344,83.6094 Q702.625,83.3906 702,83.3906 Q701.2344,83.3906 700.6016,83.7188 Q699.9688,84.0469 699.4766,84.7969 Q698.9844,85.5469 698.9844,86.5781 L698.9844,87.6719 Q698.9844,88.9063 699.875,89.7266 Q700.7656,90.5469 702.3594,90.5469 Q703.2969,90.5469 703.9531,90.2969 Q704.3438,90.1406 704.7656,89.7031 Q705.0313,89.4375 705.1797,89.3594 Q705.3281,89.2813 705.5313,89.2813 Q705.8594,89.2813 706.1172,89.5391 Q706.375,89.7969 706.375,90.1406 Q706.375,90.4844 706.0313,90.8906 Q705.5313,91.4688 704.7344,91.7969 Q703.6563,92.25 702.3594,92.25 Q700.8438,92.25 699.6406,91.625 Q698.6563,91.125 697.9688,90.0547 Q697.2813,88.9844 697.2813,87.7031 L697.2813,86.5469 Q697.2813,85.2188 697.8984,84.0703 Q698.5156,82.9219 699.6094,82.3047 Q700.7031,81.6875 701.9375,81.6875 Q702.6719,81.6875 703.3203,81.8516 Q703.9688,82.0156 704.5156,82.375 Z "/><text fill="#000000" font-family="sans-serif" font-size="12" lengthAdjust="spacingAndGlyphs" textLength="33" x="722.25" y="91.4102">Enum</text><line style="stroke: #A80036; stroke-width: 1.5;" x1="608" x2="837" y1="102.5" y2="102.5"/><ellipse cx="618" cy="114.918" fill="none" rx="3" ry="3" style="stroke: #038048; stroke-width: 1.0;"/><text fill="#000000" font-family="sans-serif" font-size="11" lengthAdjust="spacingAndGlyphs" textLength="118" x="627" y="117.9189">GRID_MODULE_K1 : any</text><ellipse cx="618" cy="128.7539" fill="none" rx="3" ry="3" style="stroke: #038048; stroke-width: 1.0;"/><text fill="#000000" font-family="sans-serif" font-size="11" lengthAdjust="spacingAndGlyphs" textLength="118" x="627" y="131.7549">GRID_MODULE_K2 : any</text><ellipse cx="618" cy="142.5898" fill="none" rx="3" ry="3" style="stroke: #038048; stroke-width: 1.0;"/><text fill="#000000" font-family="sans-serif" font-size="11" lengthAdjust="spacingAndGlyphs" textLength="158" x="627" y="145.5908">GRID_MODULE_KROSSING : any</text><ellipse cx="618" cy="156.4258" fill="none" rx="3" ry="3" style="stroke: #038048; stroke-width: 1.0;"/><text fill="#000000" font-family="sans-serif" font-size="11" lengthAdjust="spacingAndGlyphs" textLength="87" x="627" y="159.4268">STATE_IDLE : any</text><ellipse cx="618" cy="170.2617" fill="none" rx="3" ry="3" style="stroke: #038048; stroke-width: 1.0;"/><text fill="#000000" font-family="sans-serif" font-size="11" lengthAdjust="spacingAndGlyphs" textLength="95" x="627" y="173.2627">STATE_BUSY : any</text><ellipse cx="618" cy="184.0977" fill="none" rx="3" ry="3" style="stroke: #038048; stroke-width: 1.0;"/><text fill="#000000" font-family="sans-serif" font-size="11" lengthAdjust="spacingAndGlyphs" textLength="107" x="627" y="187.0986">STATE_LOCKED : any</text><ellipse cx="618" cy="197.9336" fill="none" rx="3" ry="3" style="stroke: #038048; stroke-width: 1.0;"/><text fill="#000000" font-family="sans-serif" font-size="11" lengthAdjust="spacingAndGlyphs" textLength="104" x="627" y="200.9346">MOUNT_FLOOR : any</text><ellipse cx="618" cy="211.7695" fill="none" rx="3" ry="3" style="stroke: #038048; stroke-width: 1.0;"/><text fill="#000000" font-family="sans-serif" font-size="11" lengthAdjust="spacingAndGlyphs" textLength="99" x="627" y="214.7705">MOUNT_WALL : any</text><ellipse cx="618" cy="225.6055" fill="none" rx="3" ry="3" style="stroke: #038048; stroke-width: 1.0;"/><text fill="#000000" font-family="sans-serif" font-size="11" lengthAdjust="spacingAndGlyphs" textLength="84" x="627" y="228.6064">ALIGN_TOP : any</text><ellipse cx="618" cy="239.4414" fill="none" rx="3" ry="3" style="stroke: #038048; stroke-width: 1.0;"/><text fill="#000000" font-family="sans-serif" font-size="11" lengthAdjust="spacingAndGlyphs" textLength="107" x="627" y="242.4424">ALIGN_BOTTOM : any</text><ellipse cx="618" cy="253.2773" fill="none" rx="3" ry="3" style="stroke: #038048; stroke-width: 1.0;"/><text fill="#000000" font-family="sans-serif" font-size="11" lengthAdjust="spacingAndGlyphs" textLength="205" x="627" y="256.2783">CONTAINER_MODULE_HORIZONTAL : any</text><ellipse cx="618" cy="267.1133" fill="none" rx="3" ry="3" style="stroke: #038048; stroke-width: 1.0;"/><text fill="#000000" font-family="sans-serif" font-size="11" lengthAdjust="spacingAndGlyphs" textLength="189" x="627" y="270.1143">CONTAINER_MODULE_VERTICAL : any</text><line style="stroke: #A80036; stroke-width: 1.5;" x1="608" x2="837" y1="276.5313" y2="276.5313"/><!--class IKObject--><rect fill="#FEFECE" filter="url(#f1anjdqmmi4wye)" height="131.0156" id="IKObject" style="stroke: #A80036; stroke-width: 1.5;" width="137" x="435" y="112"/><ellipse cx="475.65" cy="128" fill="#B4A7E5" rx="11" ry="11" style="stroke: #A80036; stroke-width: 1.0;"/><path d="M476.6031,124.6406 L476.6031,131.2969 L478.3219,131.2969 Q478.9313,131.2969 479.1969,131.5313 Q479.4625,131.7656 479.4625,132.1563 Q479.4625,132.5313 479.1969,132.7656 Q478.9313,133 478.3219,133 L473.1813,133 Q472.5719,133 472.3063,132.7656 Q472.0406,132.5313 472.0406,132.1406 Q472.0406,131.7656 472.3063,131.5313 Q472.5719,131.2969 473.1813,131.2969 L474.9,131.2969 L474.9,124.6406 L473.1813,124.6406 Q472.5719,124.6406 472.3063,124.4063 Q472.0406,124.1719 472.0406,123.7813 Q472.0406,123.4063 472.3063,123.1719 Q472.5719,122.9375 473.1813,122.9375 L478.3219,122.9375 Q478.9313,122.9375 479.1969,123.1719 Q479.4625,123.4063 479.4625,123.7813 Q479.4625,124.1719 479.1969,124.4063 Q478.9313,124.6406 478.3219,124.6406 L476.6031,124.6406 Z "/><text fill="#000000" font-family="sans-serif" font-size="12" font-style="italic" lengthAdjust="spacingAndGlyphs" textLength="48" x="495.35" y="132.9102">IKObject</text><line style="stroke: #A80036; stroke-width: 1.5;" x1="436" x2="571" y1="144" y2="144"/><ellipse cx="446" cy="156.418" fill="none" rx="3" ry="3" style="stroke: #038048; stroke-width: 1.0;"/><text fill="#000000" font-family="sans-serif" font-size="11" lengthAdjust="spacingAndGlyphs" textLength="111" x="455" y="159.4189">parent : ContentModule</text><ellipse cx="446" cy="170.2539" fill="none" rx="3" ry="3" style="stroke: #038048; stroke-width: 1.0;"/><text fill="#000000" font-family="sans-serif" font-size="11" lengthAdjust="spacingAndGlyphs" textLength="69" x="455" y="173.2549">object3D : any</text><ellipse cx="446" cy="184.0898" fill="none" rx="3" ry="3" style="stroke: #038048; stroke-width: 1.0;"/><text fill="#000000" font-family="sans-serif" font-size="11" lengthAdjust="spacingAndGlyphs" textLength="77" x="455" y="187.0908">PIM_props : any</text><line style="stroke: #A80036; stroke-width: 1.5;" x1="436" x2="571" y1="193.5078" y2="193.5078"/><ellipse cx="446" cy="205.9258" fill="#84BE84" rx="3" ry="3" style="stroke: #038048; stroke-width: 1.0;"/><text fill="#000000" font-family="sans-serif" font-size="11" lengthAdjust="spacingAndGlyphs" textLength="93" x="455" y="208.9268">init(conf: any): void</text><ellipse cx="446" cy="219.7617" fill="#84BE84" rx="3" ry="3" style="stroke: #038048; stroke-width: 1.0;"/><text fill="#000000" font-family="sans-serif" font-size="11" lengthAdjust="spacingAndGlyphs" textLength="80" x="455" y="222.7627">clone(): IKObject</text><ellipse cx="446" cy="233.5977" fill="#84BE84" rx="3" ry="3" style="stroke: #038048; stroke-width: 1.0;"/><text fill="#000000" font-family="sans-serif" font-size="11" lengthAdjust="spacingAndGlyphs" textLength="67" x="455" y="236.5986">update(): void</text><!--class KObject--><rect fill="#FEFECE" filter="url(#f1anjdqmmi4wye)" height="131.0156" id="KObject" style="stroke: #A80036; stroke-width: 1.5;" width="137" x="353" y="517.5"/><ellipse cx="395.9" cy="533.5" fill="#ADD1B2" rx="11" ry="11" style="stroke: #A80036; stroke-width: 1.0;"/><path d="M398.6656,529.375 Q398.8219,529.1563 399.0094,529.0469 Q399.1969,528.9375 399.4156,528.9375 Q399.7906,528.9375 400.025,529.1953 Q400.2594,529.4531 400.2594,530.0625 L400.2594,531.5156 Q400.2594,532.125 400.025,532.3906 Q399.7906,532.6563 399.4156,532.6563 Q399.0719,532.6563 398.8688,532.4531 Q398.6656,532.2656 398.5563,531.75 Q398.5094,531.3906 398.3219,531.2031 Q397.9938,530.8281 397.3844,530.6094 Q396.775,530.3906 396.15,530.3906 Q395.3844,530.3906 394.7516,530.7188 Q394.1188,531.0469 393.6266,531.7969 Q393.1344,532.5469 393.1344,533.5781 L393.1344,534.6719 Q393.1344,535.9063 394.025,536.7266 Q394.9156,537.5469 396.5094,537.5469 Q397.4469,537.5469 398.1031,537.2969 Q398.4938,537.1406 398.9156,536.7031 Q399.1813,536.4375 399.3297,536.3594 Q399.4781,536.2813 399.6813,536.2813 Q400.0094,536.2813 400.2672,536.5391 Q400.525,536.7969 400.525,537.1406 Q400.525,537.4844 400.1813,537.8906 Q399.6813,538.4688 398.8844,538.7969 Q397.8063,539.25 396.5094,539.25 Q394.9938,539.25 393.7906,538.625 Q392.8063,538.125 392.1188,537.0547 Q391.4313,535.9844 391.4313,534.7031 L391.4313,533.5469 Q391.4313,532.2188 392.0484,531.0703 Q392.6656,529.9219 393.7594,529.3047 Q394.8531,528.6875 396.0875,528.6875 Q396.8219,528.6875 397.4703,528.8516 Q398.1188,529.0156 398.6656,529.375 Z "/><text fill="#000000" font-family="sans-serif" font-size="12" lengthAdjust="spacingAndGlyphs" textLength="43" x="416.1" y="538.4102">KObject</text><line style="stroke: #A80036; stroke-width: 1.5;" x1="354" x2="489" y1="549.5" y2="549.5"/><ellipse cx="364" cy="561.918" fill="none" rx="3" ry="3" style="stroke: #038048; stroke-width: 1.0;"/><text fill="#000000" font-family="sans-serif" font-size="11" lengthAdjust="spacingAndGlyphs" textLength="111" x="373" y="564.9189">parent : ContentModule</text><ellipse cx="364" cy="575.7539" fill="none" rx="3" ry="3" style="stroke: #038048; stroke-width: 1.0;"/><text fill="#000000" font-family="sans-serif" font-size="11" lengthAdjust="spacingAndGlyphs" textLength="69" x="373" y="578.7549">object3D : any</text><ellipse cx="364" cy="589.5898" fill="none" rx="3" ry="3" style="stroke: #038048; stroke-width: 1.0;"/><text fill="#000000" font-family="sans-serif" font-size="11" lengthAdjust="spacingAndGlyphs" textLength="77" x="373" y="592.5908">PIM_props : any</text><line style="stroke: #A80036; stroke-width: 1.5;" x1="354" x2="489" y1="599.0078" y2="599.0078"/><ellipse cx="364" cy="611.4258" fill="#84BE84" rx="3" ry="3" style="stroke: #038048; stroke-width: 1.0;"/><text fill="#000000" font-family="sans-serif" font-size="11" lengthAdjust="spacingAndGlyphs" textLength="21" x="373" y="614.4268">init()</text><ellipse cx="364" cy="625.2617" fill="#84BE84" rx="3" ry="3" style="stroke: #038048; stroke-width: 1.0;"/><text fill="#000000" font-family="sans-serif" font-size="11" lengthAdjust="spacingAndGlyphs" textLength="34" x="373" y="628.2627">clone()</text><ellipse cx="364" cy="639.0977" fill="#84BE84" rx="3" ry="3" style="stroke: #038048; stroke-width: 1.0;"/><text fill="#000000" font-family="sans-serif" font-size="11" lengthAdjust="spacingAndGlyphs" textLength="41" x="373" y="642.0986">update()</text><!--link BaseModule to IBaseModule--><path d="M196.896,406.752 C197.038,388.711 197.035,370.383 196.885,352.358 " fill="none" id="BaseModule-IBaseModule" style="stroke: #A80036; stroke-width: 1.0;"/><polygon fill="#A80036" points="196.839,347.282,192.9214,356.3182,196.8847,352.2818,200.9211,356.2451,196.839,347.282" style="stroke: #A80036; stroke-width: 1.0;"/><!--link IBaseModule to BaseModule--><path d="M170.772,367.669 C170.726,380.699 170.752,393.8 170.848,406.752 " fill="none" id="IBaseModule-BaseModule" style="stroke: #A80036; stroke-width: 1.0;"/><polygon fill="none" points="163.775,367.237,170.903,347.282,177.774,367.327,163.775,367.237" style="stroke: #A80036; stroke-width: 1.0;"/><!--link ContainerModule to GridModule--><path d="M295.35,1031.22 C288.113,1047.9 279.429,1067.914 271.457,1086.287 " fill="none" id="ContainerModule-GridModule" style="stroke: #A80036; stroke-width: 1.0;"/><polygon fill="#A80036" points="269.447,1090.919,276.6992,1084.2552,271.4374,1086.3323,269.3604,1081.0705,269.447,1090.919" style="stroke: #A80036; stroke-width: 1.0;"/><!--link BaseModule to ContainerModule--><path d="M244.505,778.453 C265.578,845.623 287.085,914.177 299.86,954.899 " fill="none" id="BaseModule-ContainerModule" style="stroke: #A80036; stroke-width: 1.0;"/><polygon fill="none" points="237.741,780.279,238.433,759.1,251.099,776.088,237.741,780.279" style="stroke: #A80036; stroke-width: 1.0;"/><!--link ContentModule to ContainerModule--><path d="M382.923,895.326 C370.265,912.46 355.209,932.838 342.192,950.457 " fill="none" id="ContentModule-ContainerModule" style="stroke: #A80036; stroke-width: 1.0;"/><polygon fill="#A80036" points="338.929,954.874,347.4945,950.0127,341.9004,950.8527,341.0604,945.2585,338.929,954.874" style="stroke: #A80036; stroke-width: 1.0;"/><!--link BaseModule to ContentModule--><path d="M330.43,760.057 C348.826,782.1 365.936,802.602 379.577,818.947 " fill="none" id="BaseModule-ContentModule" style="stroke: #A80036; stroke-width: 1.0;"/><polygon fill="none" points="324.956,764.423,317.515,744.582,335.705,755.452,324.956,764.423" style="stroke: #A80036; stroke-width: 1.0;"/><!--link BaseModule to GridModule--><path d="M191.206,779.188 C196.277,857.808 204.66,949.097 218.5,1031 C221.838,1050.752 227.056,1072.118 232.151,1090.751 " fill="none" id="BaseModule-GridModule" style="stroke: #A80036; stroke-width: 1.0;"/><polygon fill="none" points="184.219,779.617,189.971,759.223,198.192,778.752,184.219,779.617" style="stroke: #A80036; stroke-width: 1.0;"/><!--link IKObject to ContentModule--><path d="M519.642,243.003 C543.959,353.551 579.912,584.182 507.5,759 C498.561,780.581 482.233,799.864 465.49,815.442 " fill="none" id="IKObject-ContentModule" style="stroke: #A80036; stroke-width: 1.0;"/><polygon fill="#A80036" points="461.687,818.912,471.0312,815.7999,465.3803,815.5416,465.6386,809.8906,461.687,818.912" style="stroke: #A80036; stroke-width: 1.0;"/><!--link KObject to ContentModule--><path d="M418.879,648.805 C416.815,699.841 413.998,769.506 412.214,813.627 " fill="none" id="KObject-ContentModule" style="stroke: #A80036; stroke-width: 1.0;"/><polygon fill="#A80036" points="412.001,818.878,416.3603,810.0465,412.2024,813.8821,408.3668,809.7242,412.001,818.878" style="stroke: #A80036; stroke-width: 1.0;"/><!--link IKObject to KObject--><path d="M486.274,263.263 C470.878,339.027 448.646,448.421 434.642,517.332 " fill="none" id="IKObject-KObject" style="stroke: #A80036; stroke-width: 1.0;"/><polygon fill="none" points="479.482,261.535,490.325,243.329,493.202,264.323,479.482,261.535" style="stroke: #A80036; stroke-width: 1.0;"/><!--
@startuml
interface IBaseModule{
  +width : number
  +height : number
  +depth : number
  +type : any
  +state : any
  +parent : IBaseModule
  +children : (IBaseModule | KObject)[]
  +object3D : any
  +next : IBaseModule | undefined
  +prev : IBaseModule | undefined
  +init(): void
  +clone(): IBaseModule
  +cloneChildren(): any
  +getNextChild(child: any): IBaseModule['children'][0] | undefined
  +getPrevChild(child: any): IBaseModule['children'][0] | undefined
  +addObject(object: any): IBaseModule
  +setObject3D(object: any): IBaseModule
  +canModuleFitObject(object: any): boolean
  +canChildModuleFitObject(module: IBaseModule, object: any): boolean
  +update(data: any, recursive: boolean): IBaseModule
  +updateParent(data: any, recursive: boolean): IBaseModule
}

class BaseModule{
  +width : number
  +height : number
  +depth : number
  +type : any
  +state : any
  +parent : IBaseModule
  +object3D : any
  +children : (BaseModule|KObject)[]
  +idx : number
  + <<readonly>> next : any
  + <<readonly>> prev : any
  +init()
  +clone()
  +cloneChildren()
  +getNextChild(child: any)
  +getPrevChild(child: any)
  +addObject(object: any)
  +setObject3D(object3D: any)
  +canModuleFitObject(object: any)
  +canChildModuleFitObject(module: any, object: any)
  +update(data: any, recursive: boolean)
  +updateParent(data: any, recursive: boolean)
}

BaseModule - -> IBaseModule
IBaseModule <|- - BaseModule
class ContainerModule{
  +children : ContentModule[]
  +parent : GridModule
}

class BaseModule{

}

ContainerModule - -> GridModule
BaseModule <|- - ContainerModule
class ContentModule{
  +parent : ContainerModule
  +children : KObject[]
}

class BaseModule{

}

ContentModule - -> ContainerModule
BaseModule <|- - ContentModule
class Enum{
  +GRID_MODULE_K1 : any
  +GRID_MODULE_K2 : any
  +GRID_MODULE_KROSSING : any
  +STATE_IDLE : any
  +STATE_BUSY : any
  +STATE_LOCKED : any
  +MOUNT_FLOOR : any
  +MOUNT_WALL : any
  +ALIGN_TOP : any
  +ALIGN_BOTTOM : any
  +CONTAINER_MODULE_HORIZONTAL : any
  +CONTAINER_MODULE_VERTICAL : any
}


class GridModule{
  +children : ContainerModule[]
  +type_mount : any
  +type_hAlign : any
  +parent : any
}

class BaseModule{

}

BaseModule <|- - GridModule
interface IKObject{
  +parent : ContentModule
  +object3D : any
  +PIM_props : any
  +init(conf: any): void
  +clone(): IKObject
  +update(): void
}

class KObject{
  +parent : ContentModule
  +object3D : any
  +PIM_props : any
  +init()
  +clone()
  +update()
}

IKObject - -> ContentModule
KObject - -> ContentModule
IKObject <|- - KObject


@enduml

PlantUML version 1.2018.09(Fri Jul 27 18:58:18 CEST 2018)
(GPL source distribution)
Java Runtime: Java(TM) SE Runtime Environment
JVM: Java HotSpot(TM) 64-Bit Server VM
Java Version: 1.8.0_161-b12
Operating System: Windows 10
OS Version: 10.0
Default Encoding: Cp1252
Language: en
Country: GB
--></g></svg>